<?xml version="1.0" encoding="UTF-8" standalone="no"?>
<!DOCTYPE svg PUBLIC "-//W3C//DTD SVG 1.1//EN"
 "http://www.w3.org/Graphics/SVG/1.1/DTD/svg11.dtd">
<!-- Generated by graphviz version 2.43.0 (0)
 -->
<!-- Title: %3 Pages: 1 -->
<svg width="170pt" height="260pt"
 viewBox="0.00 0.00 170.00 260.00" xmlns="http://www.w3.org/2000/svg" xmlns:xlink="http://www.w3.org/1999/xlink">
<g id="graph0" class="graph" transform="scale(1 1) rotate(0) translate(4 256)">
<title>%3</title>
<polygon fill="white" stroke="transparent" points="-4,4 -4,-256 166,-256 166,4 -4,4"/>
<!-- f -->
<g id="node1" class="node">
<title>f</title>
<ellipse fill="none" stroke="black" cx="54" cy="-234" rx="27" ry="18"/>
<text text-anchor="middle" x="54" y="-230.3" font-family="Times,serif" font-size="14.00">f</text>
</g>
<!-- e -->
<g id="node2" class="node">
<title>e</title>
<ellipse fill="none" stroke="black" cx="82" cy="-162" rx="27" ry="18"/>
<text text-anchor="middle" x="82" y="-158.3" font-family="Times,serif" font-size="14.00">e</text>
</g>
<!-- f&#45;&gt;e -->
<g id="edge1" class="edge">
<title>f&#45;&gt;e</title>
<path fill="none" stroke="black" d="M60.64,-216.41C63.91,-208.22 67.94,-198.14 71.62,-188.95"/>
<polygon fill="black" stroke="black" points="74.95,-190.05 75.41,-179.47 68.45,-187.45 74.95,-190.05"/>
</g>
<!-- d -->
<g id="node3" class="node">
<title>d</title>
<ellipse fill="none" stroke="black" cx="27" cy="-90" rx="27" ry="18"/>
<text text-anchor="middle" x="27" y="-86.3" font-family="Times,serif" font-size="14.00">d</text>
</g>
<!-- f&#45;&gt;d -->
<g id="edge2" class="edge">
<title>f&#45;&gt;d</title>
<path fill="none" stroke="black" d="M50.74,-215.87C46.14,-191.67 37.69,-147.21 32.21,-118.39"/>
<polygon fill="black" stroke="black" points="35.57,-117.36 30.27,-108.19 28.7,-118.67 35.57,-117.36"/>
</g>
<!-- e&#45;&gt;d -->
<g id="edge3" class="edge">
<title>e&#45;&gt;d</title>
<path fill="none" stroke="black" d="M70.07,-145.81C62.79,-136.55 53.34,-124.52 45.15,-114.09"/>
<polygon fill="black" stroke="black" points="47.84,-111.86 38.91,-106.16 42.34,-116.18 47.84,-111.86"/>
</g>
<!-- c -->
<g id="node4" class="node">
<title>c</title>
<ellipse fill="none" stroke="black" cx="99" cy="-90" rx="27" ry="18"/>
<text text-anchor="middle" x="99" y="-86.3" font-family="Times,serif" font-size="14.00">c</text>
</g>
<!-- e&#45;&gt;c -->
<g id="edge4" class="edge">
<title>e&#45;&gt;c</title>
<path fill="none" stroke="black" d="M86.12,-144.05C88.01,-136.26 90.3,-126.82 92.42,-118.08"/>
<polygon fill="black" stroke="black" points="95.85,-118.82 94.8,-108.28 89.04,-117.17 95.85,-118.82"/>
</g>
<!-- a -->
<g id="node5" class="node">
<title>a</title>
<ellipse fill="none" stroke="black" cx="63" cy="-18" rx="27" ry="18"/>
<text text-anchor="middle" x="63" y="-14.3" font-family="Times,serif" font-size="14.00">a</text>
</g>
<!-- c&#45;&gt;a -->
<g id="edge5" class="edge">
<title>c&#45;&gt;a</title>
<path fill="none" stroke="black" d="M90.65,-72.76C86.29,-64.28 80.85,-53.71 75.96,-44.2"/>
<polygon fill="black" stroke="black" points="78.99,-42.44 71.3,-35.15 72.77,-45.64 78.99,-42.44"/>
</g>
<!-- b -->
<g id="node6" class="node">
<title>b</title>
<ellipse fill="none" stroke="black" cx="135" cy="-18" rx="27" ry="18"/>
<text text-anchor="middle" x="135" y="-14.3" font-family="Times,serif" font-size="14.00">b</text>
</g>
<!-- c&#45;&gt;b -->
<g id="edge6" class="edge">
<title>c&#45;&gt;b</title>
<path fill="none" stroke="black" d="M107.35,-72.76C111.71,-64.28 117.15,-53.71 122.04,-44.2"/>
<polygon fill="black" stroke="black" points="125.23,-45.64 126.7,-35.15 119.01,-42.44 125.23,-45.64"/>
</g>
</g>
</svg>
